# Blender v2.79 (sub 0) OBJ File: ''
# www.blender.org
mtllib spaceship.mtl
o Cube_Cube_Base
v 0.677471 0.439401 -0.920121
v 0.677471 0.438656 -0.170327
v 0.000000 0.438656 -0.170327
v 0.000000 0.439401 -0.920121
v 0.524405 0.748319 -0.919813
v 0.318120 0.663515 -1.262492
v 0.277250 0.719609 -1.262436
v 0.356961 0.978136 -0.919584
v 1.703732 -0.076088 -0.198553
v 0.677471 0.538234 -0.920022
v 1.703732 0.022745 -0.198455
v 0.000000 0.663515 -1.262492
v 0.000000 0.719609 -1.262436
v 0.440114 0.436871 1.623436
v 0.440113 0.535704 1.623535
v 0.000000 0.535107 2.224126
v 0.000000 0.436274 2.224028
v 0.355481 0.612238 -1.262543
v 0.355481 0.588115 -1.262567
v 0.000000 0.588115 -1.262567
v 0.000000 0.612238 -1.262543
v 0.000000 0.438028 0.461107
v 0.614876 0.438185 0.302720
v 0.614876 0.537193 0.126125
v 1.703732 0.022745 -0.198455
v 1.888423 0.022745 -0.198454
v 1.888423 -0.076088 -0.198553
v 0.677470 0.537727 -0.410210
v 1.703732 -0.076834 0.551240
v 1.703731 0.022238 0.311357
v 0.677470 0.537727 -0.410210
v 1.703731 0.022238 0.311357
v 0.677471 0.538234 -0.920022
v 0.000000 0.978136 -0.919585
v 0.000000 0.977390 -0.169792
v 0.303864 0.977390 -0.169791
v 0.461809 0.710517 0.174177
v 0.524405 0.747697 -0.295393
v 0.294366 0.900121 0.226743
v 0.355481 0.612238 -1.262543
v 1.888423 0.022238 0.311357
v 1.888423 -0.076834 0.551240
v 1.703731 0.021999 0.551269
v 1.888423 0.022000 0.551269
v 1.738379 0.003459 0.551264
v 1.853775 0.003459 0.551264
v 1.703732 -0.076834 0.551240
v 1.888423 -0.076834 0.551240
v 1.738379 0.003235 1.289176
v 1.853775 0.003235 1.289176
v 1.738379 -0.058293 0.551245
v 1.853775 -0.058292 0.551245
v 1.771015 -0.014229 1.289170
v 1.821140 -0.014229 1.289170
v 1.853775 -0.058516 1.289157
v 1.738379 -0.058516 1.289157
v 1.771015 -0.014274 1.438227
v 1.821140 -0.014274 1.438227
v 1.771015 -0.041052 1.289162
v 1.821140 -0.041052 1.289162
v 1.771015 -0.041097 1.438219
v 1.821140 -0.041097 1.438219
v 0.287047 0.606714 1.485185
v 0.000000 0.606116 2.085776
v 0.000000 0.956517 0.212882
v -0.677471 0.439401 -0.920121
v -0.677471 0.438656 -0.170327
v -0.524404 0.748319 -0.919813
v -0.356960 0.978136 -0.919584
v -0.277250 0.719609 -1.262436
v -0.318120 0.663515 -1.262492
v -1.703732 -0.076088 -0.198553
v -1.703732 0.022745 -0.198455
v -0.677471 0.538234 -0.920022
v -0.440113 0.436871 1.623436
v -0.440113 0.535704 1.623535
v -0.355480 0.612238 -1.262543
v -0.355480 0.588115 -1.262567
v -0.614875 0.438185 0.302720
v -0.614875 0.537193 0.126125
v -1.888423 -0.076088 -0.198553
v -1.888423 0.022745 -0.198454
v -1.703732 0.022745 -0.198455
v -0.677470 0.537727 -0.410210
v -1.703731 0.022238 0.311357
v -1.703732 -0.076834 0.551240
v -1.703731 0.022238 0.311357
v -0.677470 0.537727 -0.410210
v -0.677471 0.538234 -0.920022
v -0.303863 0.977390 -0.169791
v -0.461809 0.710517 0.174177
v -0.294365 0.900121 0.226743
v -0.524404 0.747697 -0.295393
v -0.355480 0.612238 -1.262543
v -1.888423 -0.076834 0.551240
v -1.888423 0.022238 0.311357
v -1.888423 0.022000 0.551269
v -1.703731 0.021999 0.551269
v -1.853775 0.003459 0.551264
v -1.738379 0.003459 0.551264
v -1.703732 -0.076834 0.551240
v -1.888423 -0.076834 0.551240
v -1.853775 0.003235 1.289176
v -1.738379 0.003235 1.289176
v -1.738379 -0.058293 0.551245
v -1.853775 -0.058292 0.551245
v -1.821139 -0.014229 1.289170
v -1.771015 -0.014229 1.289170
v -1.738379 -0.058516 1.289157
v -1.853775 -0.058516 1.289157
v -1.821139 -0.014274 1.438227
v -1.771015 -0.014274 1.438227
v -1.771015 -0.041052 1.289162
v -1.821139 -0.041052 1.289162
v -1.821139 -0.041097 1.438219
v -1.771015 -0.041097 1.438219
v -0.287047 0.606714 1.485185
vn 0.0000 -1.0000 -0.0010
vn 0.6829 0.4981 -0.5344
vn 0.5754 0.0008 -0.8178
vn 0.0000 0.0010 -1.0000
vn 0.8066 -0.0006 0.5911
vn 0.9914 -0.0001 0.1312
vn 0.1922 0.9070 0.3746
vn 0.4484 0.8939 0.0009
vn 0.7287 0.0007 -0.6849
vn 0.0000 0.0000 1.0000
vn -0.0000 1.0000 0.0010
vn 0.7611 0.6329 0.1416
vn 0.0000 -0.9172 -0.3983
vn 0.7346 0.6765 0.0527
vn -0.4484 -0.8939 -0.0009
vn 0.0000 0.7984 -0.6021
vn 1.0000 0.0000 0.0000
vn 0.0000 -0.0003 1.0000
vn -1.0000 -0.0000 -0.0000
vn 0.0000 1.0000 0.0003
vn 0.0000 -1.0000 -0.0003
vn 0.5281 0.7555 0.3878
vn 0.7614 0.6304 0.1514
vn 0.8082 0.5889 0.0006
vn 0.9652 0.2282 0.1279
vn 0.3859 0.9214 0.0460
vn 0.1759 0.9654 0.1923
vn -0.6829 0.4981 -0.5344
vn -0.5754 0.0008 -0.8178
vn -0.8066 -0.0006 0.5911
vn -0.9726 0.2028 0.1137
vn -0.1922 0.9070 0.3746
vn -0.4484 0.8939 0.0009
vn -0.7287 0.0007 -0.6849
vn -0.7530 0.6404 0.1511
vn -0.8082 0.5889 0.0006
vn 0.4484 -0.8939 -0.0009
vn -0.5281 0.7555 0.3878
vn -0.8288 0.5510 0.0973
vn -0.9561 0.2708 0.1119
vn -0.3859 0.9214 0.0460
vn 0.0000 0.9985 0.0545
vn 0.9726 0.2028 0.1137
vn 0.7530 0.6404 0.1511
vn 0.3043 0.9412 0.1464
vn 0.8288 0.5510 0.0973
vn 0.9561 0.2708 0.1119
vn -0.9914 -0.0001 0.1312
vn -0.7611 0.6329 0.1416
vn -0.7346 0.6765 0.0527
vn -0.3043 0.9412 0.1464
vn -0.7614 0.6304 0.1514
vn -0.9652 0.2282 0.1279
vn -0.1759 0.9654 0.1923
usemtl Base
s off
f 2//1 4//1 1//1
f 5//2 7//2 8//2
f 1//3 11//3 9//3
f 12//4 7//4 6//4
f 15//5 17//5 14//5
f 19//4 21//4 18//4
f 22//1 14//1 17//1
f 23//6 15//6 14//6
f 25//4 27//4 9//4
f 2//7 30//7 28//7
f 31//8 11//8 10//8
f 19//9 33//9 1//9
f 33//10 31//10 10//10
f 28//10 32//10 31//10
f 34//11 36//11 8//11
f 37//12 36//12 39//12
f 19//13 4//13 20//13
f 38//14 8//14 36//14
f 2//15 9//15 29//15
f 30//10 11//10 32//10
f 18//10 10//10 40//10
f 7//16 34//16 8//16
f 27//17 41//17 42//17
f 9//1 42//1 29//1
f 30//11 44//11 41//11
f 30//11 26//11 25//11
f 44//18 45//18 46//18
f 30//19 47//19 43//19
f 42//10 44//10 48//10
f 29//10 48//10 47//10
f 45//20 50//20 46//20
f 43//18 51//18 45//18
f 44//18 52//18 48//18
f 48//18 51//18 47//18
f 50//18 53//18 54//18
f 52//21 56//21 51//21
f 45//19 56//19 49//19
f 46//17 55//17 52//17
f 53//20 58//20 54//20
f 56//18 53//18 49//18
f 55//18 54//18 60//18
f 55//18 59//18 56//18
f 61//18 58//18 57//18
f 60//17 58//17 62//17
f 60//21 61//21 59//21
f 59//19 57//19 53//19
f 18//2 5//2 33//2
f 21//4 6//4 18//4
f 15//22 64//22 16//22
f 24//23 38//23 37//23
f 28//24 5//24 38//24
f 2//25 24//25 23//25
f 24//26 63//26 15//26
f 3//1 23//1 22//1
f 36//27 65//27 39//27
f 4//1 67//1 66//1
f 68//28 70//28 71//28
f 73//29 66//29 72//29
f 70//4 12//4 71//4
f 17//30 76//30 75//30
f 21//4 78//4 77//4
f 22//1 75//1 79//1
f 79//31 76//31 80//31
f 81//4 83//4 72//4
f 85//32 67//32 84//32
f 73//33 88//33 74//33
f 78//34 89//34 77//34
f 89//10 88//10 84//10
f 84//10 87//10 85//10
f 90//11 34//11 69//11
f 91//35 90//35 93//35
f 78//13 4//13 66//13
f 93//36 69//36 68//36
f 67//37 72//37 66//37
f 85//10 73//10 83//10
f 77//10 74//10 89//10
f 70//16 34//16 13//16
f 81//19 96//19 82//19
f 95//1 72//1 86//1
f 96//11 98//11 85//11
f 82//11 85//11 83//11
f 97//18 100//18 98//18
f 85//10 101//10 86//10
f 95//19 97//19 96//19
f 86//10 102//10 95//10
f 103//20 100//20 99//20
f 98//18 105//18 101//18
f 106//18 97//18 102//18
f 105//18 102//18 101//18
f 103//18 108//18 104//18
f 109//21 106//21 105//21
f 100//17 109//17 105//17
f 110//19 99//19 106//19
f 111//20 108//20 107//20
f 108//18 109//18 104//18
f 110//18 107//18 103//18
f 113//18 110//18 109//18
f 111//18 116//18 112//18
f 114//19 111//19 107//19
f 116//21 114//21 113//21
f 112//17 113//17 108//17
f 68//28 77//28 89//28
f 71//4 21//4 77//4
f 64//38 76//38 16//38
f 80//39 93//39 84//39
f 84//36 68//36 89//36
f 67//40 80//40 84//40
f 117//41 80//41 76//41
f 3//1 79//1 67//1
f 90//42 65//42 35//42
f 2//1 3//1 4//1
f 5//2 6//2 7//2
f 1//3 10//3 11//3
f 12//4 13//4 7//4
f 15//5 16//5 17//5
f 19//4 20//4 21//4
f 22//1 23//1 14//1
f 23//43 24//43 15//43
f 25//4 26//4 27//4
f 2//7 29//7 30//7
f 31//8 32//8 11//8
f 19//9 18//9 33//9
f 33//10 28//10 31//10
f 28//10 30//10 32//10
f 34//11 35//11 36//11
f 37//44 38//44 36//44
f 19//13 1//13 4//13
f 38//24 5//24 8//24
f 2//15 1//15 9//15
f 30//10 25//10 11//10
f 18//10 33//10 10//10
f 7//16 13//16 34//16
f 27//17 26//17 41//17
f 9//1 27//1 42//1
f 30//11 43//11 44//11
f 30//11 41//11 26//11
f 44//18 43//18 45//18
f 30//10 29//10 47//10
f 42//17 41//17 44//17
f 29//10 42//10 48//10
f 45//20 49//20 50//20
f 43//18 47//18 51//18
f 44//18 46//18 52//18
f 48//18 52//18 51//18
f 50//18 49//18 53//18
f 52//21 55//21 56//21
f 45//19 51//19 56//19
f 46//17 50//17 55//17
f 53//20 57//20 58//20
f 56//18 59//18 53//18
f 55//18 50//18 54//18
f 55//18 60//18 59//18
f 61//18 62//18 58//18
f 60//17 54//17 58//17
f 60//21 62//21 61//21
f 59//19 61//19 57//19
f 18//2 6//2 5//2
f 21//4 12//4 6//4
f 15//45 63//45 64//45
f 24//46 28//46 38//46
f 28//24 33//24 5//24
f 2//47 28//47 24//47
f 24//23 37//23 63//23
f 3//1 2//1 23//1
f 36//42 35//42 65//42
f 4//1 3//1 67//1
f 68//28 69//28 70//28
f 73//29 74//29 66//29
f 70//4 13//4 12//4
f 17//30 16//30 76//30
f 21//4 20//4 78//4
f 22//1 17//1 75//1
f 79//48 75//48 76//48
f 81//4 82//4 83//4
f 85//32 86//32 67//32
f 73//33 87//33 88//33
f 78//34 66//34 89//34
f 89//10 74//10 88//10
f 84//10 88//10 87//10
f 90//11 35//11 34//11
f 91//49 92//49 90//49
f 78//13 20//13 4//13
f 93//50 90//50 69//50
f 67//37 86//37 72//37
f 85//10 87//10 73//10
f 77//10 94//10 74//10
f 70//16 69//16 34//16
f 81//19 95//19 96//19
f 95//1 81//1 72//1
f 96//11 97//11 98//11
f 82//11 96//11 85//11
f 97//18 99//18 100//18
f 85//17 98//17 101//17
f 95//10 102//10 97//10
f 86//10 101//10 102//10
f 103//20 104//20 100//20
f 98//18 100//18 105//18
f 106//18 99//18 97//18
f 105//18 106//18 102//18
f 103//18 107//18 108//18
f 109//21 110//21 106//21
f 100//17 104//17 109//17
f 110//19 103//19 99//19
f 111//20 112//20 108//20
f 108//18 113//18 109//18
f 110//18 114//18 107//18
f 113//18 114//18 110//18
f 111//18 115//18 116//18
f 114//19 115//19 111//19
f 116//21 115//21 114//21
f 112//17 116//17 113//17
f 68//28 71//28 77//28
f 71//4 12//4 21//4
f 64//51 117//51 76//51
f 80//52 91//52 93//52
f 84//36 93//36 68//36
f 67//53 79//53 80//53
f 117//52 91//52 80//52
f 3//1 22//1 79//1
f 90//54 92//54 65//54
